<svg width="24" height="24" viewBox="0 0 24 24" fill="none" xmlns="http://www.w3.org/2000/svg">
<g clip-path="url(#clip0_499_3506)">
<path d="M12.0001 0C5.38323 0 0 5.38323 0 12.0001C0 18.6169 5.38323 24.0002 12.0001 24.0002C18.6169 24.0002 24.0002 18.6169 24.0002 12.0001C24.0002 5.38323 18.6168 0 12.0001 0ZM12.0001 21.943C6.51767 21.943 2.05718 17.4825 2.05718 12.0001C2.05718 6.51767 6.51767 2.05718 12.0001 2.05718C17.4825 2.05718 21.943 6.51767 21.943 12.0001C21.943 17.4825 17.4823 21.943 12.0001 21.943Z" fill="#343A3F"/>
<path d="M16.6433 7.35725C16.2415 6.95546 15.59 6.95546 15.1889 7.35725L12.0001 10.5465L8.8112 7.35725C8.4094 6.95546 7.75857 6.95546 7.35678 7.35725C6.95499 7.75905 6.95499 8.40988 7.35678 8.81167L10.5456 12.0008L7.35664 15.1901C6.95485 15.5919 6.95485 16.2427 7.35664 16.6445C7.55747 16.8453 7.82069 16.9459 8.08392 16.9459C8.34714 16.9459 8.61064 16.8455 8.8112 16.6445L12.0001 13.4554L15.1889 16.6445C15.3897 16.8453 15.653 16.9459 15.9162 16.9459C16.1794 16.9459 16.4425 16.8455 16.6435 16.6445C17.0453 16.2427 17.0453 15.5919 16.6435 15.1901L13.4545 12.0009L16.6433 8.81181C17.0451 8.41001 17.0451 7.75905 16.6433 7.35725Z" fill="#343A3F"/>
</g>
<defs>
<clipPath id="clip0_499_3506">
<rect width="24" height="24" fill="white"/>
</clipPath>
</defs>
</svg>
