<svg width="240" height="235" viewBox="0 0 240 235" fill="none" xmlns="http://www.w3.org/2000/svg">
<g clip-path="url(#clip0_402_4851)">
<path d="M210.062 187.93C210.062 187.93 206.657 217.389 205.621 218.203C204.585 219.018 196.961 212.948 196.147 212.134C195.333 211.32 188.227 186.894 191.114 182.675C194 178.456 210.062 187.93 210.062 187.93Z" fill="#F7A98F"/>
<path d="M52.626 188.228C52.626 188.228 30.4206 168.539 30.3466 167.281C30.2726 165.948 39.5988 163.136 40.7091 162.988C41.8194 162.765 65.9491 170.981 67.7256 175.719C69.576 180.456 52.626 188.228 52.626 188.228Z" fill="#F7A98F"/>
<path d="M163.653 128.79L175.57 130.196C175.57 130.196 212.431 136.488 214.504 139.004C216.576 141.447 219.759 146.702 219.093 149.515C218.427 152.327 209.989 205.324 209.989 205.324L191.706 204.954C191.706 204.954 186.081 176.531 186.451 171.276C186.821 166.021 188.893 161.802 188.893 161.802C188.893 161.802 142.188 159.359 138.339 162.468C134.49 165.65 94.817 217.907 82.5301 219.017C70.2431 220.053 43.8928 186.746 43.5968 183.563C43.3007 180.38 50.9985 166.687 53.4411 167.057C55.8837 167.427 78.6811 177.937 80.8277 179.344C82.9001 180.75 84.3065 186.005 84.3065 186.005C84.3065 186.005 96.2233 140.707 98.3698 140.04C100.442 139.374 162.247 130.196 162.247 130.196L163.653 128.79Z" fill="#DC6501"/>
<path d="M151.218 146.703C146.703 152.403 142.188 158.028 137.673 163.727C137.229 164.246 136.488 163.505 136.932 162.987C141.448 157.288 145.963 151.663 150.478 145.963C150.848 145.445 151.588 146.185 151.218 146.703Z" fill="#A13301"/>
<path d="M191.706 152.771C191.039 155.806 190.299 158.841 189.633 161.876C189.337 161.728 188.967 161.58 188.671 161.506C191.483 156.99 194.296 152.475 197.109 147.96C197.479 147.368 198.367 147.886 197.997 148.478C195.184 152.993 192.372 157.509 189.559 162.024C189.263 162.542 188.449 162.172 188.597 161.654C189.263 158.619 190.003 155.584 190.669 152.549C190.817 151.883 191.854 152.105 191.706 152.771Z" fill="#A13301"/>
<path d="M79.421 197.406C80.9014 193.705 82.3818 190.004 83.7881 186.377C84.0101 185.711 84.8984 186.007 84.8243 186.673C84.0101 192.002 83.196 197.332 82.3818 202.661C82.3077 203.327 81.2715 203.031 81.3455 202.365C82.1597 197.036 82.9739 191.706 83.7881 186.377C84.1582 186.451 84.4543 186.599 84.8243 186.673C83.344 190.374 81.8636 194.075 80.4573 197.702C80.1612 198.368 79.125 198.072 79.421 197.406Z" fill="#A13301"/>
<path d="M194.519 212.132C194.741 214.575 196.073 224.197 197.035 229.896C197.405 232.191 197.775 233.893 197.923 234.189C198.442 235.226 240.558 226.788 239.817 225.529C239.521 225.011 239.225 224.567 238.929 224.271C236.339 221.31 233.008 222.791 222.201 219.534C210.062 215.833 208.508 208.505 206.658 210.356C204.807 212.206 201.106 213.242 201.106 213.242C201.106 213.242 194.297 208.727 194.519 212.132Z" fill="#6041A7"/>
<path d="M197.11 229.97C197.48 232.264 197.85 233.966 197.998 234.263C198.516 235.299 240.633 226.861 239.892 225.602C239.596 225.084 239.3 224.64 239.004 224.344C229.752 225.825 204.438 229.896 197.11 229.97Z" fill="#001C31"/>
<path d="M224.939 221.016C224.125 222.052 222.941 221.83 221.682 221.682C219.24 221.386 216.871 220.794 214.503 220.127C209.766 218.647 205.398 216.501 201.402 213.688C200.883 213.318 201.402 212.356 201.92 212.8C205.25 215.094 208.803 217.019 212.652 218.425C214.355 219.017 216.131 219.535 217.907 219.979C219.314 220.275 223.163 221.682 224.273 220.35C224.643 219.757 225.383 220.498 224.939 221.016Z" fill="#001C31"/>
<path d="M228.716 226.567C227.975 225.901 227.235 225.235 226.569 224.569C225.977 224.495 225.459 224.421 224.867 224.421C224.348 224.421 223.756 224.421 223.238 224.421C221.98 224.421 220.648 224.347 219.389 224.199C216.947 223.977 214.504 223.606 212.21 222.718C207.62 221.016 204.29 217.389 201.107 213.836C200.663 213.318 201.403 212.578 201.847 213.096C206.362 218.203 210.803 222.052 217.761 223.014C220.574 223.384 223.386 223.162 226.125 223.458C227.975 223.68 229.382 224.495 229.826 226.345C229.9 226.937 228.938 227.233 228.716 226.567Z" fill="#001C31"/>
<path d="M206.14 218.868C202.661 220.423 199.034 220.793 195.259 219.905C194.593 219.757 194.889 218.72 195.555 218.868C198.96 219.609 202.365 219.313 205.622 217.906C206.214 217.684 206.732 218.572 206.14 218.868Z" fill="#001C31"/>
<path d="M42.7824 162.468C41.006 160.765 33.5302 154.548 29.0151 150.921C27.1647 149.44 25.8323 148.404 25.4622 148.256C24.352 147.812 -1.40617 182.156 0.0741806 182.674C0.666322 182.822 1.11043 182.971 1.62855 183.045C5.47747 183.489 7.03184 180.232 17.2463 175.421C28.719 170.091 34.7885 174.532 34.9365 171.942C35.0845 169.351 37.157 166.094 37.157 166.094C37.157 166.094 45.225 164.836 42.7824 162.468Z" fill="#6041A7"/>
<path d="M29.015 150.848C27.1646 149.368 25.8323 148.332 25.4622 148.184C24.3519 147.74 -1.40623 182.084 0.0741196 182.602C0.666261 182.75 1.11037 182.898 1.62849 182.972C7.40187 175.792 23.4637 155.808 29.015 150.848Z" fill="#001C31"/>
<path d="M14.1368 176.161C14.2108 174.607 15.3211 174.015 16.5794 173.201C18.7259 171.794 21.0204 170.536 23.389 169.5C27.682 167.649 32.1971 166.465 36.7862 165.947C37.4524 165.873 37.4524 166.909 36.7862 166.983C33.0853 167.427 29.3844 168.316 25.9056 169.648C24.1292 170.314 22.3527 171.128 20.6503 172.016C19.392 172.683 15.3211 174.533 15.247 176.161C15.173 176.828 14.1368 176.828 14.1368 176.161Z" fill="#001C31"/>
<path d="M7.62317 174.459C8.73344 175.2 10.7319 174.459 11.6941 173.719C12.2123 173.275 12.7304 172.831 13.2485 172.387C13.9887 171.721 14.8029 171.055 15.6171 170.388C17.6156 168.834 19.7621 167.428 22.1306 166.391C26.7938 164.467 31.827 164.911 36.7121 165.503C37.3783 165.577 37.3783 166.614 36.7121 166.54C29.9765 165.725 23.9811 165.799 18.2077 169.796C15.9132 171.351 13.9887 173.423 11.6941 174.978C10.1398 176.014 8.5854 176.384 7.03103 175.348C6.51291 174.978 7.03103 174.089 7.62317 174.459Z" fill="#001C31"/>
<path d="M29.6804 165.061C31.1608 161.656 33.7514 158.917 37.0082 157.141C37.6003 156.845 38.1184 157.733 37.5263 158.029C34.4176 159.731 32.049 162.322 30.5686 165.579C30.3466 166.245 29.4584 165.653 29.6804 165.061Z" fill="#001C31"/>
<path d="M83.6407 11.547C79.4217 14.7298 76.9791 28.7191 65.0623 38.9335C53.1454 49.148 48.8524 49.8141 48.8524 51.8866C48.8524 53.9591 78.3115 60.9908 78.3115 60.9908L83.6407 11.547Z" fill="#F9D275"/>
<path d="M148.554 25.6108C148.554 25.6108 84.6767 8.43869 83.6405 11.5474C82.6042 14.7302 53.8113 105.994 57.2902 112.285C60.769 118.577 108.88 127.015 108.88 127.015C108.88 127.015 154.179 52.9233 154.845 54.0336C155.586 55.0698 148.554 25.6108 148.554 25.6108Z" fill="#F9D275"/>
<path d="M156.621 35.7484C156.621 35.7484 103.255 23.8315 101.848 25.534C100.442 27.3104 74.0917 117.538 76.2382 119.61C78.3107 121.683 121.537 129.825 121.537 129.825L156.621 35.7484Z" fill="#DB570F"/>
<path d="M84.6766 14.8021C82.6041 19.3171 81.1238 25.0165 79.4214 29.9017C76.7567 37.5995 74.0921 45.3714 71.4274 53.0692C70.8353 54.8456 70.1691 56.6221 69.577 58.3985C69.355 59.0646 68.3187 58.7686 68.5408 58.1024C72.9078 45.3714 77.2748 32.6403 81.7159 19.9093C82.3821 18.0588 82.9002 16.0604 83.7144 14.2839C84.0105 13.6918 84.9727 14.2099 84.6766 14.8021Z" fill="#DB570F"/>
<path d="M51.4432 52.4027C57.8088 48.7758 64.3963 44.4088 69.2075 38.7834C74.0186 33.2321 77.8676 26.6445 81.4204 20.131C81.5684 19.9089 81.8645 19.8349 82.1606 19.9089C87.934 23.0177 93.7073 26.2004 99.5547 29.3092C100.147 29.6052 99.6288 30.5675 99.0366 30.1974C93.2632 27.0886 87.4899 23.9059 81.6425 20.7971C81.8645 20.7231 82.0866 20.6491 82.3826 20.5751C78.8298 27.0886 74.9069 33.7502 70.0217 39.4496C65.0625 45.223 58.4009 49.664 51.9614 53.2909C51.3692 53.661 50.8511 52.7728 51.4432 52.4027Z" fill="#DB570F"/>
<path d="M104.662 25.6098C101.331 23.4633 97.9264 21.3168 94.5216 19.2443C92.153 17.764 89.7104 16.2836 87.3418 14.8032C86.4536 14.2851 84.2331 12.5087 83.3449 12.5827C82.6787 12.6567 82.6787 11.5465 83.3449 11.5465C84.3811 11.4724 85.8615 12.7307 86.6757 13.1749C89.1923 14.6552 91.7089 16.2096 94.2255 17.764C97.9264 20.0585 101.553 22.353 105.254 24.6476C105.772 25.0177 105.254 25.9799 104.662 25.6098Z" fill="#DB570F"/>
<path d="M77.3486 111.545C73.6477 110.879 69.9468 109.621 66.394 108.51C64.3215 107.844 62.1749 107.252 60.1765 106.438C59.3623 106.142 58.178 105.846 57.5858 105.106C57.2158 104.587 58.104 104.069 58.4741 104.587C59.0662 105.328 61.1387 105.698 62.0269 105.994C64.0994 106.734 66.1719 107.326 68.2444 107.992C71.3531 108.881 74.4619 109.991 77.6446 110.583C78.3108 110.657 78.0147 111.693 77.3486 111.545Z" fill="#DB570F"/>
<path d="M206.657 77.6426C206.657 77.6426 191.928 110.581 186.895 115.54C181.861 120.573 176.606 121.831 173.201 120.795C169.796 119.759 162.691 113.689 162.691 113.689L179.789 93.1864C179.789 93.1864 197.405 73.2016 199.774 73.2016C202.142 73.1276 206.657 77.6426 206.657 77.6426Z" fill="#F7A98F"/>
<path d="M154.77 47.8899C154.77 47.8899 164.541 50.5546 171.35 63.6557C178.16 76.8308 179.788 93.1147 179.788 93.1147C179.788 93.1147 176.606 97.0377 173.719 104.958C170.832 112.877 162.172 118.133 157.657 117.615C157.657 117.615 156.325 122.056 160.322 126.053C160.322 126.053 176.902 128.939 176.087 130.272C175.273 131.604 162.394 141.892 153.438 143.669C144.482 145.519 128.198 150.256 122.129 151.293C116.059 152.329 90.301 138.932 90.301 138.117C90.301 137.303 98.2209 115.246 98.2209 115.246L72.6848 85.787C72.6848 85.787 66.9114 79.7175 67.4295 74.9804C67.9476 70.2433 83.1953 67.8747 93.2617 62.3234C103.328 56.772 121.684 46.2615 125.089 44.9292C128.42 43.6709 151.069 45.5213 154.77 47.8899Z" fill="#F7931E"/>
<path d="M198.22 73.6471C198.516 71.8707 198.812 70.1683 199.182 68.3918C199.552 66.3934 199.996 64.3209 200.44 62.3224C200.662 61.5082 200.884 60.768 201.254 60.0278C201.55 59.4357 201.698 58.6955 202.069 58.1034C202.439 57.5112 202.883 56.9191 203.401 56.475C204.215 55.8088 205.251 55.2907 206.288 55.3647C207.324 55.4387 208.36 56.401 208.286 57.4372C209.248 57.1411 210.729 57.5112 211.321 58.3254C211.617 58.6955 211.395 60.2499 210.877 60.4719C210.877 60.4719 213.541 59.1396 214.8 60.4719C216.132 61.8043 214.8 63.3586 214.8 63.3586C214.8 63.3586 217.168 62.0263 217.464 64.1728C217.686 65.6532 216.946 67.4296 216.354 68.7619C216.058 69.5021 215.762 70.3163 215.244 70.9825C214.429 72.0927 213.541 72.1667 212.505 71.3525C211.987 72.6108 211.765 74.0172 211.099 75.2015C210.359 76.3857 209.174 77.1999 207.916 77.9401C207.25 78.3102 206.51 78.6803 205.843 78.4582C204.881 78.2362 204.289 77.9401 203.549 77.348C202.809 76.8298 202.069 76.2377 201.328 75.7196C200.588 75.2015 199.922 74.6833 199.182 74.1652C199.034 74.3132 198.22 73.7211 198.22 73.6471Z" fill="#F7A98F"/>
<path d="M115.987 35.1571C115.987 35.1571 124.203 39.2281 130.272 45.5196C136.342 51.8111 137.378 59.2128 135.823 65.8004C134.269 72.388 123.462 97.9241 121.612 99.9966C119.762 102.069 101.627 107.694 101.627 107.694L101.331 101.551L99.0366 100.885C99.0366 100.885 108.289 99.4785 111.694 98.0721C116.875 95.8516 118.947 91.8546 123.166 81.048C127.385 70.2415 130.716 60.5452 127.83 53.6615C124.943 46.8519 105.772 38.932 105.772 36.5634C105.772 34.1949 114.136 33.5287 115.987 35.1571Z" fill="#DB310F"/>
<path d="M79.4213 77.7184C79.4213 77.7184 88.4514 79.4948 93.7067 86.8226C98.9619 94.2243 107.918 114.431 107.918 114.431C107.918 114.431 115.32 118.354 116.578 120.501C117.91 122.573 117.096 123.683 117.096 123.683C117.096 123.683 119.983 127.606 118.133 129.457C116.282 131.307 116.282 131.307 116.282 131.307C116.282 131.307 115.468 133.972 113.395 133.38C113.395 133.38 112.063 136.562 110.213 135.23C110.213 135.23 107.844 137.599 105.772 135.526C103.699 133.454 98.3698 121.019 97.6296 119.76C96.8895 118.428 96.8895 118.428 96.8895 118.428C96.8895 118.428 73.2038 96.2968 72.1675 90.8195C71.0573 85.2682 79.4213 77.7184 79.4213 77.7184Z" fill="#F7A98F"/>
<path d="M157.659 117.615C157.659 117.615 165.357 87.416 166.467 76.0913C167.577 64.7666 156.4 47.5945 156.4 47.5945C156.4 47.5945 165.357 52.8497 166.171 53.6639C166.985 54.4781 173.573 62.25 173.35 79.2741C173.202 84.8254 157.659 117.615 157.659 117.615Z" fill="#DB310F"/>
<path d="M113.544 124.644C114.876 126.569 118.281 131.676 115.246 133.748C114.284 134.414 113.248 133.97 112.581 133.156C111.249 131.454 110.509 129.677 108.511 128.567C107.918 128.271 108.436 127.309 109.029 127.679C110.879 128.641 111.915 130.195 113.026 131.898C113.174 132.194 113.396 132.49 113.618 132.786C114.728 132.786 115.246 132.342 115.172 131.528C115.468 130.714 115.024 129.603 114.728 128.863C114.21 127.531 113.396 126.346 112.581 125.236C112.285 124.644 113.174 124.126 113.544 124.644Z" fill="#7C4415"/>
<path d="M113.84 133.454C113.766 135.008 111.767 136.414 110.287 135.748C108.437 134.86 106.956 132.195 106.142 130.419C105.846 129.827 106.734 129.308 107.03 129.901C107.548 130.937 108.066 131.899 108.807 132.787C109.103 133.231 109.473 133.676 109.917 134.046C110.583 134.638 112.73 135.082 112.804 133.454C112.804 132.787 113.84 132.787 113.84 133.454Z" fill="#7C4415"/>
<path d="M116.504 130.271C118.058 130.937 118.428 127.903 118.354 127.237C118.206 126.57 117.836 125.682 117.54 125.09C116.578 123.314 114.95 121.981 113.395 120.797C112.877 120.427 113.395 119.465 113.913 119.909C116.43 121.833 119.095 124.202 119.539 127.533C119.761 129.457 118.132 132.048 116.06 131.16C115.32 130.937 115.838 129.975 116.504 130.271Z" fill="#7C4415"/>
<path d="M180.602 93.3377C177.049 98.815 174.829 104.884 173.941 111.324C173.867 111.99 172.83 111.694 172.904 111.028C173.793 104.514 176.087 98.3709 179.64 92.8195C180.01 92.2274 180.972 92.7455 180.602 93.3377Z" fill="#7C4415"/>
<path d="M203.993 59.8793C205.696 61.5077 207.62 62.988 209.101 64.7644C209.693 65.5046 210.581 66.3928 210.137 67.5031C209.175 69.6496 205.918 67.9472 204.733 66.985C204.956 66.7629 205.252 66.4669 205.474 66.2448C207.324 68.5393 207.694 71.204 206.436 73.8686C206.14 74.4608 205.252 73.9426 205.548 73.3505C206.584 71.13 206.288 68.8354 204.733 66.985C204.289 66.4669 204.956 65.8007 205.474 66.2448C206.066 66.5409 206.658 66.911 207.176 67.207C207.546 66.6889 207.99 66.0968 208.36 65.5046C208.286 65.0605 206.88 64.0243 206.51 63.7282C205.4 62.692 204.363 61.6557 203.253 60.5454C202.735 60.1754 203.475 59.4352 203.993 59.8793Z" fill="#7C4415"/>
<path d="M209.248 68.0976C209.322 68.3937 209.396 68.9859 209.544 69.2079C210.136 70.0221 210.432 69.578 210.802 69.1339C211.469 68.3937 211.839 67.1354 212.283 66.3212C212.801 65.359 213.319 64.4708 213.763 63.5085C214.059 62.6944 214.429 61.8802 213.985 61.066C213.467 60.1778 211.987 60.1778 211.024 60.4738C210.358 60.6959 210.136 59.6596 210.728 59.4376C212.135 58.9194 214.429 58.9194 215.169 60.6219C215.91 62.3243 214.355 64.7668 213.541 66.2472C212.875 67.5055 211.987 70.6883 210.432 71.1324C208.804 71.5765 208.434 69.3559 208.212 68.3937C208.064 67.7276 209.026 67.4315 209.248 68.0976Z" fill="#7C4415"/>
<path d="M206.51 59.2152C207.028 58.475 207.25 57.3648 208.138 57.0687C209.1 56.6986 210.729 56.6986 211.395 57.6608C211.987 58.5491 211.691 59.6593 211.173 60.4735C210.803 61.0657 210.359 61.5838 210.063 62.2499C209.618 63.0641 209.248 63.9523 208.804 64.7665C208.434 65.3587 207.546 64.8406 207.916 64.2484C208.73 62.8421 209.396 61.5098 210.211 60.1034C210.433 59.7333 210.803 59.2152 210.729 58.7711C210.507 58.475 210.211 58.253 209.989 57.9569C209.618 57.8829 209.248 57.9569 208.878 58.179C208.064 58.475 207.99 59.0672 207.546 59.7333C207.028 60.2515 206.14 59.7333 206.51 59.2152Z" fill="#7C4415"/>
<path d="M201.18 58.5488C202.216 56.4763 204.806 53.6637 207.249 55.218C208.137 55.8102 208.581 56.6244 208.359 57.6606C207.989 59.289 206.731 60.8434 206.065 62.3977C205.769 62.9899 204.88 62.4718 205.177 61.8796C205.547 60.9914 205.991 60.1772 206.435 59.289C206.953 58.3268 207.841 57.1425 206.805 56.1803C205.029 54.6259 202.734 57.6606 202.068 59.0669C201.772 59.6591 200.884 59.141 201.18 58.5488Z" fill="#7C4415"/>
<path d="M212.728 67.9484C212.654 68.6145 212.95 72.5375 214.356 71.2052C214.874 70.761 215.614 71.5012 215.096 71.9453C214.356 72.6855 213.172 72.7595 212.506 71.8713C211.765 70.761 211.543 69.2807 211.691 68.0224C211.765 67.2822 212.802 67.2822 212.728 67.9484Z" fill="#7C4415"/>
<path d="M146.925 13.6178C146.925 13.6178 144.482 21.9078 143.816 29.3095C143.15 36.9334 145.37 43.1509 145.37 46.7037C145.37 50.2565 161.284 28.5694 160.544 25.0905C159.804 21.6857 146.925 13.6178 146.925 13.6178Z" fill="#7C4415"/>
<path d="M159.508 46.5576C159.508 46.5576 154.475 52.7751 154.623 60.5469C154.623 62.0273 153.513 63.8777 150.552 63.9518C146.185 64.0998 143.446 54.1074 144.261 49.4443C145.075 44.8552 149.516 35.899 149.516 35.899L159.508 46.5576Z" fill="#F7A98F"/>
<path d="M178.605 29.3104C178.605 29.3104 178.531 29.4585 178.457 29.6805C177.494 32.1231 172.091 45.2983 168.76 48.6291C165.059 52.3299 159.138 53.3662 157.584 52.8481C153.587 51.3677 150.33 45.0762 149.59 42.3376C148.775 39.5989 148.775 36.7122 148.775 36.7122C148.775 36.7122 146.407 36.1941 146.555 32.2712C146.703 28.3482 147.739 26.4978 148.775 27.1639C149.812 27.8301 151.514 30.0506 151.514 30.0506C151.514 30.0506 152.032 29.6805 154.549 25.6096C157.065 21.5386 180.381 27.386 178.901 28.8663C178.086 29.6065 178.975 29.3104 178.605 29.3104Z" fill="#F7A98F"/>
<path d="M179.641 26.0532C179.641 26.0532 181.195 22.1303 179.789 16.9491C178.309 11.8418 176.754 7.32676 169.427 3.55186C162.025 -0.297063 156.77 -0.667152 152.328 2.0715C147.887 4.81016 145.889 13.7663 146.259 14.9506C146.629 16.1349 176.902 35.2314 179.641 26.0532Z" fill="#6041A7"/>
<path d="M187.413 35.8984C187.413 39.5253 164.097 31.4574 156.992 27.7565C149.886 24.0556 146.185 14.9514 146.185 14.9514C146.185 14.9514 156.177 21.1689 165.282 24.4257C174.386 27.6825 179.641 25.9801 179.641 25.9801C179.641 25.9801 187.413 33.7519 187.413 35.8984Z" fill="#A58FD8"/>
<path d="M156.324 33.1589C156.324 34.4912 157.435 35.6015 158.767 35.6015C160.099 35.6015 161.21 34.4912 161.21 33.1589C161.21 31.8266 160.099 30.7163 158.767 30.7163C157.435 30.7163 156.324 31.8266 156.324 33.1589Z" fill="#001C31"/>
<path d="M168.907 37.2321C168.907 38.5644 170.017 39.6747 171.35 39.6747C172.682 39.6747 173.792 38.5644 173.792 37.2321C173.792 35.8998 172.682 34.7895 171.35 34.7895C170.017 34.7895 168.907 35.8998 168.907 37.2321Z" fill="#001C31"/>
<path d="M157.584 43.8935C157.584 43.8935 158.546 45.0038 161.211 46.04C163.875 47.0763 165.059 46.8542 165.059 46.8542C165.059 46.8542 161.655 49.9629 159.286 48.5566C156.917 47.2243 157.584 43.8935 157.584 43.8935Z" fill="white"/>
<path d="M155.659 52.5514C149.441 47.7403 147.221 40.6346 149.367 33.0108C149.515 32.3446 150.552 32.6407 150.404 33.3068C148.331 40.5606 150.552 47.2221 156.473 51.8112C156.917 52.1813 156.177 52.9215 155.659 52.5514Z" fill="#7C4415"/>
<path d="M166.465 42.7073C165.651 44.0396 164.244 44.7058 162.69 44.7058C162.024 44.7058 162.024 43.6695 162.69 43.6695C163.8 43.6695 164.91 43.2254 165.577 42.1892C165.873 41.523 166.761 42.1152 166.465 42.7073Z" fill="#7C4415"/>
<path d="M159.138 0.147499C165.651 5.1807 166.762 16.5794 163.727 23.7591C163.505 24.3513 162.543 23.8332 162.839 23.241C165.725 16.5054 164.541 5.62481 158.472 0.887676C157.88 0.44357 158.62 -0.296607 159.138 0.147499Z" fill="#013861"/>
<path d="M169.352 3.25746C174.163 9.84503 175.792 18.135 173.941 26.0549C173.793 26.7211 172.757 26.425 172.905 25.7588C174.682 18.061 173.053 10.1411 168.464 3.77558C168.094 3.25746 168.982 2.73934 169.352 3.25746Z" fill="#013861"/>
<path d="M179.049 26.5724C173.645 27.3126 167.502 26.2023 162.469 23.9818C159.73 22.7975 157.213 21.3172 154.475 20.2069C151.736 19.0966 149.146 17.7643 146.555 16.358C145.963 15.9879 146.481 15.0997 147.073 15.4698C151.514 17.9864 156.251 19.5407 160.692 21.9833C165.948 24.87 172.831 26.4244 178.753 25.6102C179.419 25.4621 179.715 26.4984 179.049 26.5724Z" fill="#013861"/>
<path d="M161.506 32.7161C160.395 31.0136 158.249 30.2735 156.25 30.8656C155.584 31.0877 155.362 30.0514 155.954 29.8294C158.397 29.0892 160.987 30.0514 162.394 32.1239C162.764 32.7901 161.876 33.3082 161.506 32.7161Z" fill="#001C31"/>
<path d="M173.794 36.4908C172.388 35.3066 170.537 35.0845 168.835 35.7507C168.169 35.9727 167.946 35.0105 168.539 34.7144C170.611 33.9002 172.832 34.3443 174.534 35.7507C175.052 36.1948 174.312 36.935 173.794 36.4908Z" fill="#001C31"/>
<path d="M120.428 47.4445C127.163 54.5502 126.719 66.245 123.758 74.9791C122.056 80.0123 118.503 84.3053 115.32 88.5243C111.693 93.2614 107.03 96.5922 102.515 100.293C101.997 100.737 101.257 99.997 101.775 99.5529C105.698 96.3702 109.991 93.4835 113.248 89.5606C116.431 85.6376 119.761 81.4186 121.908 76.8295C123.98 72.5365 124.647 67.2812 124.647 62.5441C124.721 57.2888 123.388 52.1816 119.687 48.2587C119.169 47.6665 119.909 46.9264 120.428 47.4445Z" fill="#7C4415"/>
<path d="M101.256 100.663C97.0369 92.9649 92.7439 84.4528 84.676 80.2338C81.2712 78.4574 77.0521 76.681 73.1292 77.7912C71.7969 78.1613 71.6489 78.1613 72.093 79.4936C72.5371 80.6779 73.0552 82.2323 74.0174 83.1205C74.5355 83.5646 73.7954 84.3048 73.2772 83.8607C72.167 82.8985 69.9464 79.1976 70.9087 77.7172C72.315 75.5707 77.6443 76.5329 79.4947 76.977C84.2319 78.2353 88.895 80.974 92.2258 84.6009C96.2967 89.0419 99.2575 94.8893 102.144 100.145C102.514 100.737 101.626 101.255 101.256 100.663Z" fill="#7C4415"/>
<path d="M159.877 126.2C149.515 124.35 139.523 121.093 131.011 114.801C130.492 114.431 131.011 113.469 131.529 113.913C139.967 120.131 149.959 123.387 160.173 125.238C160.84 125.312 160.544 126.274 159.877 126.2Z" fill="#7C4415"/>
<path d="M174.756 86.8973C168.983 97.1117 161.877 106.808 158.176 118.059C157.954 118.725 156.918 118.429 157.14 117.763C160.841 106.438 168.02 96.7416 173.794 86.3792C174.164 85.787 175.126 86.3051 174.756 86.8973Z" fill="#7C4415"/>
<path d="M113.914 63.6532C105.624 66.2438 96.8895 66.0217 88.3035 65.3556C87.6373 65.2816 87.6373 64.2453 88.3035 64.3193C96.8155 64.9855 105.402 65.2076 113.618 62.6169C114.284 62.3949 114.506 63.4311 113.914 63.6532Z" fill="#7C4415"/>
<path d="M116.577 35.8967C114.283 35.4526 106.585 33.3061 105.771 36.8589C105.622 37.5251 104.586 37.229 104.734 36.5629C105.104 35.0085 105.919 34.1943 107.547 33.8982C110.508 33.4541 113.912 34.2683 116.799 34.7864C117.465 35.0085 117.243 35.9707 116.577 35.8967Z" fill="#A4250B"/>
<path d="M107.252 34.1211C113.248 37.748 119.095 41.7449 124.424 46.26C127.163 48.5546 129.976 51.0712 130.938 54.698C132.566 61.1376 130.642 68.3173 128.347 74.3127C128.125 74.9049 127.089 74.6828 127.311 74.0167C129.606 67.9472 131.752 60.5454 129.68 54.1799C128.569 50.7011 125.091 48.1105 122.352 45.8899C117.393 41.893 112.137 38.3401 106.66 35.0093C106.142 34.7133 106.66 33.751 107.252 34.1211Z" fill="#A4250B"/>
<path d="M132.417 75.7933C130.122 75.8674 127.236 75.5713 125.533 73.8689C125.089 73.4248 125.829 72.6106 126.273 73.1287C127.754 74.6091 130.418 74.7571 132.417 74.7571C133.083 74.6831 133.083 75.7193 132.417 75.7933Z" fill="#A4250B"/>
<path d="M172.906 81.0483C170.537 81.7145 167.873 81.2704 165.8 79.938C165.208 79.568 165.726 78.6797 166.318 79.0498C168.169 80.2341 170.463 80.6042 172.61 80.0861C173.276 79.79 173.572 80.8263 172.906 81.0483Z" fill="#A4250B"/>
<path d="M164.542 52.2557C171.5 59.5834 172.684 71.2782 171.722 80.9005C171.648 81.5667 170.611 81.5667 170.685 80.9005C171.648 71.5743 170.537 60.1756 163.802 52.9958C163.358 52.4777 164.098 51.7375 164.542 52.2557Z" fill="#A4250B"/>
<path d="M119.243 28.2003C118.873 30.5688 118.429 32.9374 117.836 35.2319C117.688 35.8981 116.652 35.602 116.8 34.9359C117.318 32.6413 117.836 30.2728 118.207 27.9042C118.281 27.238 119.317 27.5341 119.243 28.2003Z" fill="#A4250B"/>
<path d="M107.326 25.9068C107.845 30.4219 105.92 35.4551 104.81 39.8222C103.255 45.9656 101.479 52.0351 99.9247 58.1786C99.7767 58.8447 98.7404 58.5486 98.8885 57.8825C100.295 52.0351 101.997 46.2617 103.478 40.4143C104.662 35.9733 106.734 30.57 106.142 25.9068C106.142 25.2407 107.252 25.2407 107.326 25.9068Z" fill="#A4250B"/>
<path d="M142.262 33.3079C131.455 30.7913 120.575 28.2747 109.546 26.5723C107.622 26.2762 104.809 25.462 102.811 25.9061C101.7 26.2022 101.478 27.7566 101.034 29.0149C98.8877 35.3804 96.9632 41.8199 95.1128 48.2595C93.6324 53.2187 92.2261 58.1778 90.7457 63.137C90.5237 63.8032 89.5615 63.5071 89.7095 62.841C92.9663 51.4422 96.149 39.8955 99.998 28.7188C100.368 27.7566 100.664 25.7581 101.626 25.0919C102.737 24.3518 105.031 24.9439 106.215 25.0919C113.099 25.9061 119.835 27.3865 126.644 28.7928C131.974 29.9031 137.229 31.0874 142.558 32.3457C143.224 32.4197 142.928 33.4559 142.262 33.3079Z" fill="#A4250B"/>
</g>
<defs>
<clipPath id="clip0_402_4851">
<rect width="239.817" height="234.34" fill="white"/>
</clipPath>
</defs>
</svg>
