<svg width="8" height="36" viewBox="0 0 8 36" fill="none" xmlns="http://www.w3.org/2000/svg">
<path d="M4 0.113249L1.11325 3L4 5.88675L6.88675 3L4 0.113249ZM3.64645 35.3536C3.84171 35.5488 4.15829 35.5488 4.35355 35.3536L7.53554 32.1716C7.7308 31.9763 7.7308 31.6597 7.53554 31.4645C7.34027 31.2692 7.02369 31.2692 6.82843 31.4645L4 34.2929L1.17157 31.4645C0.976312 31.2692 0.659729 31.2692 0.464467 31.4645C0.269205 31.6597 0.269205 31.9763 0.464467 32.1716L3.64645 35.3536ZM3.5 3L3.5 35L4.5 35L4.5 3L3.5 3Z" fill="white"/>
</svg>
