<svg width="24" height="24" viewBox="0 0 24 24" fill="none" xmlns="http://www.w3.org/2000/svg">
<path d="M20.25 0H3.75C1.68225 0 0 1.68225 0 3.75V4.6875C0 5.20528 0.419719 5.625 0.9375 5.625C1.45528 5.625 1.875 5.20528 1.875 4.6875V3.75C1.875 2.71613 2.71613 1.875 3.75 1.875H20.25C21.2839 1.875 22.125 2.71613 22.125 3.75V20.25C22.125 21.2839 21.2839 22.125 20.25 22.125H3.75C2.71613 22.125 1.875 21.2839 1.875 20.25V19.3125C1.875 18.7947 1.45528 18.375 0.9375 18.375C0.419719 18.375 0 18.7947 0 19.3125V20.25C0 22.3177 1.68225 24 3.75 24H20.25C22.3177 24 24 22.3177 24 20.25V3.75C24 1.68225 22.3177 0 20.25 0Z" fill="white"/>
<path d="M2.15587 12.6693C2.15381 12.6671 2.1517 12.665 2.14959 12.6629C1.78406 12.2974 1.78406 11.7026 2.15151 11.3352L5.63357 7.83284C5.99864 7.46567 5.9969 6.87209 5.62973 6.50703C5.26256 6.14201 4.66898 6.1437 4.30392 6.51087L0.823777 10.0113C-0.271645 11.1067 -0.272816 12.8884 0.820355 13.9853L4.2996 17.5315C4.48317 17.7187 4.72589 17.8125 4.96884 17.8125C5.20574 17.8125 5.44288 17.7232 5.62528 17.5442C5.99488 17.1816 6.00056 16.588 5.63793 16.2184L2.15587 12.6693Z" fill="white"/>
<path d="M15.6094 11.0625H5.625C5.10722 11.0625 4.6875 11.4822 4.6875 12C4.6875 12.5178 5.10722 12.9375 5.625 12.9375H15.6094C16.1272 12.9375 16.5469 12.5178 16.5469 12C16.5469 11.4822 16.1272 11.0625 15.6094 11.0625Z" fill="white"/>
</svg>
