<svg width="20" height="20" viewBox="0 0 20 20" fill="none" xmlns="http://www.w3.org/2000/svg">
<path d="M6.35845 2.97506C6.50793 2.89353 6.66678 3.01897 6.66678 3.18924V14.4667C6.66678 14.664 6.53169 14.8306 6.35845 14.9251V14.9251L4.40011 16.0417C3.03345 16.8251 1.90845 16.1751 1.90845 14.5917V6.4834C1.90845 5.9584 2.28345 5.3084 2.75011 5.04173L6.35845 2.97506V2.97506Z" fill="white"/>
<path d="M12.2219 5.06239C12.3922 5.14674 12.5 5.32038 12.5 5.51045V16.287C12.5 16.6555 12.115 16.8974 11.783 16.7375L8.40798 15.1115C8.23498 15.0281 8.125 14.853 8.125 14.661V3.83902C8.125 3.46816 8.51456 3.22637 8.8469 3.39096L12.2219 5.06239Z" fill="white"/>
<path d="M18.3333 5.40831V13.5166C18.3333 14.0416 17.9583 14.6916 17.4916 14.9583L14.7069 16.5543C14.3735 16.7453 13.9583 16.5046 13.9583 16.1205V5.32363C13.9583 5.14411 14.0545 4.97838 14.2104 4.88939L15.8416 3.95831C17.2083 3.17497 18.3333 3.82497 18.3333 5.40831Z" fill="white"/>
</svg>
