<svg width="24" height="24" viewBox="0 0 24 24" fill="none" xmlns="http://www.w3.org/2000/svg">
<path d="M16.1719 11.3438C12.6826 11.3438 9.84375 14.1826 9.84375 17.6719C9.84375 21.1611 12.6826 24 16.1719 24C19.6611 24 22.5 21.1611 22.5 17.6719C22.5 14.1826 19.6611 11.3438 16.1719 11.3438ZM16.1719 22.125C13.7164 22.125 11.7188 20.1273 11.7188 17.6719C11.7188 15.2164 13.7164 13.2188 16.1719 13.2188C18.6273 13.2188 20.625 15.2164 20.625 17.6719C20.625 20.1273 18.6273 22.125 16.1719 22.125ZM9.28583 22.125H4.3125C3.79559 22.125 3.375 21.7044 3.375 21.1875V4.6875C3.375 4.17059 3.79559 3.75 4.3125 3.75H5.85938V7.45312H15.2344V3.75H16.7344C17.2513 3.75 17.6719 4.17059 17.6719 4.6875V9.60663C18.3272 9.72821 18.9558 9.92761 19.5469 10.1955V4.6875C19.5469 3.1366 18.2853 1.875 16.7344 1.875H13.1988C12.8117 0.783691 11.7691 0 10.5469 0C9.32465 0 8.28204 0.783691 7.89496 1.875H4.3125C2.7616 1.875 1.5 3.1366 1.5 4.6875V21.1875C1.5 22.7384 2.7616 24 4.3125 24H10.9576C10.3094 23.465 9.74487 22.8323 9.28583 22.125ZM9.60938 3.75V2.8125C9.60938 2.29559 10.03 1.875 10.5469 1.875C11.0638 1.875 11.4844 2.29559 11.4844 2.8125V3.75H13.3594V5.57812H7.73438V3.75H9.60938ZM17.0625 16.7344H18.6562V18.6094H15.1875V14.5312H17.0625V16.7344Z" fill="#343A3F"/>
</svg>
