<svg width="20" height="20" viewBox="0 0 20 20" fill="none" xmlns="http://www.w3.org/2000/svg">
<path fill-rule="evenodd" clip-rule="evenodd" d="M11.3893 18.3333C11.3718 18.3333 11.3552 18.3325 11.3385 18.3316C10.9618 18.3091 10.6477 18.0358 10.5727 17.6658L9.29099 11.36C9.22433 11.0316 8.96849 10.7758 8.64016 10.7091L2.33433 9.42663C1.96433 9.35247 1.69099 9.0383 1.66849 8.66163C1.64599 8.28413 1.87849 7.93913 2.23683 7.8208L15.5702 3.37663C15.8693 3.27497 16.1993 3.3533 16.4227 3.57747C16.646 3.8008 16.7235 4.1308 16.6243 4.42997L12.1793 17.7633C12.066 18.1058 11.746 18.3333 11.3893 18.3333Z" fill="white"/>
<mask id="mask0_799_1821" style="mask-type:alpha" maskUnits="userSpaceOnUse" x="1" y="3" width="16" height="16">
<path fill-rule="evenodd" clip-rule="evenodd" d="M11.3893 18.3333C11.3718 18.3333 11.3552 18.3325 11.3385 18.3316C10.9618 18.3091 10.6477 18.0358 10.5727 17.6658L9.29099 11.36C9.22433 11.0316 8.96849 10.7758 8.64016 10.7091L2.33433 9.42663C1.96433 9.35247 1.69099 9.0383 1.66849 8.66163C1.64599 8.28413 1.87849 7.93913 2.23683 7.8208L15.5702 3.37663C15.8693 3.27497 16.1993 3.3533 16.4227 3.57747C16.646 3.8008 16.7235 4.1308 16.6243 4.42997L12.1793 17.7633C12.066 18.1058 11.746 18.3333 11.3893 18.3333Z" fill="white"/>
</mask>
<g mask="url(#mask0_799_1821)">
<rect width="20" height="20" fill="white"/>
</g>
</svg>
