<svg width="12" height="12" viewBox="0 0 12 12" fill="none" xmlns="http://www.w3.org/2000/svg">
<path d="M8.57812 9.28125C8.44875 9.28125 8.34375 9.38625 8.34375 9.51562C8.34375 9.645 8.44875 9.75 8.57812 9.75C8.7075 9.75 8.8125 9.645 8.8125 9.51562C8.8125 9.38625 8.7075 9.28125 8.57812 9.28125Z" fill="#343A3F"/>
<path d="M9.1552 8.52335L8.04122 8.1521L7.6413 7.35225C8.00159 6.98555 8.25173 6.50034 8.33609 5.99426L8.38596 5.69531H8.8125C9.2002 5.69531 9.51562 5.37989 9.51562 4.99219V3.51562C9.51562 1.57711 7.93852 0 6 0C4.05652 0 2.48438 1.57259 2.48438 3.51562V4.99219C2.48438 5.29772 2.68034 5.55825 2.95312 5.655V5.92969C2.95312 6.31739 3.26855 6.63281 3.65625 6.63281H3.86208C3.96368 6.85352 4.09519 7.05795 4.25522 7.24158C4.28841 7.27973 4.32302 7.31672 4.35848 7.3527L3.95878 8.1521L2.84477 8.52337C1.5495 8.95528 0.609375 10.3189 0.609375 11.7656C0.609375 11.8951 0.714305 12 0.84375 12H11.1562C11.2857 12 11.3906 11.8951 11.3906 11.7656C11.3906 10.3189 10.4505 8.95528 9.1552 8.52335ZM9.04688 4.99219C9.04688 5.12142 8.94173 5.22656 8.8125 5.22656H8.4548C8.51438 4.76508 8.55408 4.27399 8.57004 3.79031C8.57051 3.77667 8.57088 3.76341 8.57131 3.75H9.04688V4.99219ZM3.1875 5.22656C3.05827 5.22656 2.95312 5.12142 2.95312 4.99219V3.75H3.42886C3.42963 3.77445 3.43045 3.79901 3.43137 3.82373C3.43139 3.82458 3.43144 3.8254 3.43146 3.82624C3.43146 3.82631 3.43146 3.82638 3.43146 3.82645C3.44787 4.29689 3.48705 4.77523 3.54527 5.22654H3.1875V5.22656ZM3.65625 6.16406C3.52702 6.16406 3.42188 6.05892 3.42188 5.92969V5.69531H3.61402L3.66389 5.99435C3.67341 6.05119 3.6851 6.10781 3.69863 6.16406H3.65625ZM3.42227 3.28125H2.96203C3.08074 1.71045 4.39165 0.46875 6 0.46875C7.6012 0.46875 8.91787 1.71028 9.03794 3.28125H8.57775C8.56088 1.98687 7.50682 0.9375 6.20979 0.9375H5.79026C4.49325 0.9375 3.43913 1.98687 3.42227 3.28125ZM5.79023 1.40625H6.20977C7.25998 1.40625 8.10998 2.26526 8.10938 3.3143C8.10938 3.38805 8.10879 3.45227 8.10755 3.5107C8.10755 3.51145 8.10752 3.51223 8.10752 3.513L7.81437 3.47112C7.01796 3.3574 6.26599 2.98141 5.69698 2.4124C5.65301 2.36845 5.59341 2.34375 5.53125 2.34375C4.90181 2.34375 4.29928 2.63053 3.90098 3.11503C3.99914 2.16068 4.80593 1.40625 5.79023 1.40625ZM4.18453 6.16406C4.0672 5.77376 3.93295 4.62532 3.90328 3.88938L4.21873 3.46877C4.50844 3.08262 4.95916 2.84269 5.43863 2.81515C6.06949 3.41552 6.88563 3.81199 7.74809 3.93513L8.09313 3.98445C8.07007 4.47394 8.02294 4.96514 7.95541 5.4169C7.95539 5.41704 7.95537 5.4172 7.95534 5.41737C7.93388 5.56261 7.91695 5.65608 7.87373 5.91715C7.74961 6.66164 7.19409 7.33488 6.46076 7.51823C6.15895 7.59359 5.841 7.59356 5.53936 7.51823C5.08146 7.40377 4.6616 7.08694 4.39064 6.63281H4.86844C4.96519 6.9056 5.2257 7.10156 5.53125 7.10156H6C6.38848 7.10156 6.70312 6.78694 6.70312 6.39844C6.70312 6.01073 6.3877 5.69531 6 5.69531H5.53125C5.2189 5.69531 4.96223 5.89706 4.86804 6.16406H4.18453ZM5.51154 7.99256C5.6723 8.02643 5.8362 8.04375 6 8.04375C6.12823 8.04375 6.25648 8.03302 6.38327 8.0122L5.96913 8.45018L5.51154 7.99256ZM5.64691 8.79091L4.90352 9.57705C4.69887 9.18532 4.52302 8.77763 4.37878 8.36025L4.65795 7.80192L5.64691 8.79091ZM7.30233 7.72252L7.62117 8.36023C7.4767 8.77831 7.30081 9.18614 7.09636 9.57741L6.3007 8.78175L7.30233 7.72252ZM5.29688 6.39844C5.29688 6.26904 5.40183 6.16406 5.53125 6.16406H6C6.12923 6.16406 6.23438 6.2692 6.23438 6.39844C6.23438 6.52786 6.1294 6.63281 6 6.63281H5.53125C5.40202 6.63281 5.29688 6.52767 5.29688 6.39844ZM1.0875 11.5312C1.18038 10.3702 1.95309 9.31484 2.99302 8.96805L3.97959 8.63927C4.16034 9.13908 4.38427 9.62487 4.6467 10.0863C4.64714 10.0871 4.64756 10.0879 4.64801 10.0887C4.64801 10.0887 4.64803 10.0887 4.64803 10.0887C4.83977 10.426 5.05559 10.7555 5.28956 11.0684L5.57789 11.5312H1.0875ZM6 11.3223L5.68214 10.812C5.67858 10.8063 5.67478 10.8007 5.67075 10.7954C5.48095 10.5422 5.30391 10.2774 5.14266 10.0064L5.97851 9.12248L6.85924 10.0032C6.69691 10.2762 6.51926 10.5421 6.3293 10.7953C6.31781 10.8106 6.3341 10.7865 6 11.3223ZM6.42211 11.5312L6.71041 11.0684C6.94542 10.7543 7.16278 10.4221 7.35645 10.0809C7.35762 10.0789 7.35872 10.0768 7.35989 10.0747C7.36003 10.0744 7.36017 10.0742 7.36031 10.074C7.61941 9.61692 7.84099 9.13535 8.02041 8.63927L9.00696 8.96805C10.0469 9.31484 10.8196 10.3702 10.9125 11.5312H6.42211Z" fill="#343A3F"/>
<path d="M10.2079 10.5834C10.0513 10.2698 9.82184 9.99131 9.54441 9.77789C9.4418 9.69893 9.29466 9.71813 9.21574 9.82074C9.1368 9.92335 9.156 10.0705 9.25859 10.1494C9.48017 10.3199 9.6634 10.5424 9.78854 10.7928C9.8465 10.9088 9.98736 10.9555 10.103 10.8978C10.2187 10.8399 10.2657 10.6992 10.2079 10.5834Z" fill="#343A3F"/>
</svg>
