<svg width="20" height="20" viewBox="0 0 20 20" fill="none" xmlns="http://www.w3.org/2000/svg">
<g clip-path="url(#clip0_489_2755)">
<path d="M9.99999 19.375C11.8542 19.375 13.6668 18.8252 15.2085 17.795C16.7502 16.7649 17.9518 15.3007 18.6614 13.5877C19.3709 11.8746 19.5566 9.9896 19.1949 8.17103C18.8331 6.35246 17.9402 4.68199 16.6291 3.37087C15.318 2.05976 13.6475 1.16687 11.829 0.805138C10.0104 0.443402 8.12539 0.62906 6.41233 1.33863C4.69927 2.0482 3.23509 3.24982 2.20495 4.79153C1.17482 6.33324 0.624982 8.1458 0.624982 10C0.624982 12.4864 1.6127 14.871 3.37086 16.6291C5.12901 18.3873 7.51358 19.375 9.99999 19.375ZM7.05624 11.4313C7.11434 11.3727 7.18346 11.3262 7.25963 11.2944C7.33579 11.2627 7.41748 11.2464 7.49999 11.2464C7.58249 11.2464 7.66418 11.2627 7.74035 11.2944C7.81651 11.3262 7.88563 11.3727 7.94374 11.4313L9.37499 12.8688L9.37499 5.625C9.37499 5.45924 9.44084 5.30027 9.55805 5.18306C9.67526 5.06585 9.83423 5 9.99999 5C10.1657 5 10.3247 5.06585 10.4419 5.18306C10.5591 5.30027 10.625 5.45924 10.625 5.625L10.625 12.8688L12.0562 11.4313C12.1739 11.3136 12.3336 11.2474 12.5 11.2474C12.6664 11.2474 12.8261 11.3136 12.9437 11.4313C13.0614 11.5489 13.1275 11.7086 13.1275 11.875C13.1275 12.0414 13.0614 12.2011 12.9437 12.3188L10.4437 14.8188C10.3843 14.8757 10.3142 14.9203 10.2375 14.95C10.0853 15.0125 9.91465 15.0125 9.76249 14.95C9.68577 14.9203 9.61568 14.8757 9.55624 14.8188L7.05624 12.3188C6.99766 12.2606 6.95116 12.1915 6.91943 12.1154C6.8877 12.0392 6.87136 11.9575 6.87136 11.875C6.87136 11.7925 6.8877 11.7108 6.91943 11.6346C6.95116 11.5585 6.99766 11.4894 7.05624 11.4313Z" fill="#6041A7"/>
</g>
<defs>
<clipPath id="clip0_489_2755">
<rect width="20" height="20" fill="white" transform="translate(20 20) rotate(180)"/>
</clipPath>
</defs>
</svg>
