<svg width="58" height="58" viewBox="0 0 58 58" fill="none" xmlns="http://www.w3.org/2000/svg">
<circle cx="29" cy="29" r="29" fill="#EDE4FF"/>
<circle cx="29" cy="29" r="25" fill="#6041A7"/>
<g clip-path="url(#clip0_550_3299)">
<path d="M23.0001 19V27.8834C21.8434 29.0638 21.5411 30.7732 22.0935 32.23L19.3995 34.924C18.7097 35.6137 18.7095 36.7299 19.3995 37.4198C20.0874 38.1078 21.2069 38.1079 21.8949 37.4198L23.0001 36.3146V39H37.1178V19H23.0001ZM23.8616 32.8444C22.7148 31.6976 22.7148 29.8318 23.8616 28.685C25.0082 27.5384 26.8741 27.538 28.021 28.685C29.1677 29.8318 29.1677 31.6976 28.021 32.8444C26.8743 33.9912 25.0083 33.9912 23.8616 32.8444ZM21.063 36.5879C20.8336 36.8171 20.4606 36.8172 20.2313 36.5879C20.0018 36.3584 20.0008 35.9864 20.2313 35.7559L22.6925 33.2947C22.9296 33.5988 23.2122 33.8743 23.5407 34.1102L21.063 36.5879ZM35.9413 37.8235H24.1766V35.1381L24.643 34.6716C26.0942 35.1512 27.73 34.7992 28.8529 33.6763C30.4583 32.0709 30.4583 29.4585 28.8529 27.8531C27.5903 26.5905 25.7051 26.3211 24.1766 27.0444V20.1765H35.9413V37.8235Z" fill="white"/>
<path d="M34.7648 21.353H25.353V24.8824H34.7648V21.353ZM33.5883 23.706H26.5295V22.5295H33.5883V23.706Z" fill="white"/>
<path d="M31.2354 26.0586H34.7648V27.2351H31.2354V26.0586Z" fill="white"/>
<path d="M30.0588 35.4707H34.7647V36.6472H30.0588V35.4707Z" fill="white"/>
<path d="M32.4119 28.4116H34.7648V29.5881H32.4119V28.4116Z" fill="white"/>
<path d="M32.4119 30.7646H34.7648V31.9411H32.4119V30.7646Z" fill="white"/>
<path d="M32.4119 33.1177H34.7648V34.2942H32.4119V33.1177Z" fill="white"/>
</g>
<defs>
<clipPath id="clip0_550_3299">
<rect width="20" height="20" fill="white" transform="translate(18 19)"/>
</clipPath>
</defs>
</svg>
