<svg width="16" height="16" viewBox="0 0 16 16" fill="none" xmlns="http://www.w3.org/2000/svg">
<path d="M8.00009 7.96211C7.50692 7.96211 7.02483 7.81587 6.61478 7.54188C6.20472 7.26789 5.88513 6.87846 5.6964 6.42283C5.50767 5.9672 5.45829 5.46584 5.5545 4.98215C5.65072 4.49845 5.8882 4.05415 6.23692 3.70543C6.58564 3.35671 7.02994 3.11922 7.51363 3.02301C7.99733 2.9268 8.49869 2.97618 8.95431 3.16491C9.40994 3.35363 9.79937 3.67323 10.0734 4.08329C10.3474 4.49334 10.4936 4.97544 10.4936 5.46861C10.4929 6.1297 10.2299 6.76351 9.76245 7.23097C9.29499 7.69843 8.66118 7.96138 8.00009 7.96211ZM8.00009 3.66774C7.64392 3.66774 7.29574 3.77336 6.99959 3.97124C6.70344 4.16912 6.47262 4.45038 6.33631 4.77944C6.20001 5.10851 6.16435 5.4706 6.23383 5.81994C6.30332 6.16927 6.47484 6.49015 6.72669 6.74201C6.97855 6.99387 7.29943 7.16538 7.64876 7.23487C7.99809 7.30435 8.36019 7.26869 8.68925 7.13239C9.01832 6.99609 9.29957 6.76526 9.49745 6.46911C9.69533 6.17296 9.80095 5.82478 9.80095 5.46861C9.8004 4.99115 9.61049 4.53342 9.27289 4.19581C8.93528 3.8582 8.47754 3.66829 8.00009 3.66774Z" fill="#697077"/>
<path d="M12.329 13.0248C12.2372 13.0248 12.1491 12.9883 12.0841 12.9234C12.0192 12.8584 11.9827 12.7704 11.9827 12.6785V11.8224C11.982 11.1648 11.7204 10.5343 11.2554 10.0693C10.7904 9.60434 10.16 9.34279 9.50236 9.34205H6.49769C5.84009 9.34279 5.20963 9.60434 4.74463 10.0693C4.27964 10.5343 4.01808 11.1648 4.01735 11.8224V12.6785C4.01735 12.7704 3.98086 12.8584 3.91591 12.9234C3.85096 12.9883 3.76288 13.0248 3.67103 13.0248C3.57918 13.0248 3.49109 12.9883 3.42614 12.9234C3.36119 12.8584 3.32471 12.7704 3.32471 12.6785V11.8224C3.32572 10.9812 3.66033 10.1747 4.25517 9.57987C4.85 8.98504 5.65647 8.65042 6.49769 8.64941H9.50202C10.3433 8.65033 11.1499 8.98491 11.7448 9.57975C12.3397 10.1746 12.6743 10.9811 12.6753 11.8224V12.6785C12.6753 12.7704 12.6389 12.8584 12.5739 12.9234C12.509 12.9883 12.4209 13.0248 12.329 13.0248Z" fill="#697077"/>
</svg>
